<mxfile host="app.diagrams.net" modified="2022-01-19T14:37:38.436Z" agent="5.0 (Windows NT 10.0; Win64; x64) AppleWebKit/537.36 (KHTML, like Gecko) Chrome/97.0.4692.71 Safari/537.36" etag="cEj3noQDVOosAZGzzpxX" version="16.4.0" type="github">
  <diagram id="54v8p6Uko35ufRHFAmd0" name="Page-1">
    <mxGraphModel dx="1422" dy="762" grid="1" gridSize="10" guides="1" tooltips="1" connect="1" arrows="1" fold="1" page="1" pageScale="1" pageWidth="1169" pageHeight="827" math="0" shadow="0">
      <root>
        <mxCell id="0" />
        <mxCell id="1" parent="0" />
        <mxCell id="S0sxFMEwnrM8VdA2E1EQ-1" value="" style="rounded=1;whiteSpace=wrap;html=1;" vertex="1" parent="1">
          <mxGeometry x="60" y="180" width="120" height="60" as="geometry" />
        </mxCell>
        <mxCell id="S0sxFMEwnrM8VdA2E1EQ-2" value="" style="rounded=1;whiteSpace=wrap;html=1;" vertex="1" parent="1">
          <mxGeometry x="200" y="180" width="120" height="60" as="geometry" />
        </mxCell>
        <mxCell id="S0sxFMEwnrM8VdA2E1EQ-33" value="" style="edgeStyle=orthogonalEdgeStyle;rounded=0;orthogonalLoop=1;jettySize=auto;html=1;fontSize=14;" edge="1" parent="1" source="S0sxFMEwnrM8VdA2E1EQ-3" target="S0sxFMEwnrM8VdA2E1EQ-18">
          <mxGeometry relative="1" as="geometry" />
        </mxCell>
        <mxCell id="S0sxFMEwnrM8VdA2E1EQ-3" value="" style="rounded=1;whiteSpace=wrap;html=1;" vertex="1" parent="1">
          <mxGeometry x="340" y="180" width="120" height="60" as="geometry" />
        </mxCell>
        <mxCell id="S0sxFMEwnrM8VdA2E1EQ-4" value="" style="rounded=1;whiteSpace=wrap;html=1;" vertex="1" parent="1">
          <mxGeometry x="480" y="180" width="120" height="60" as="geometry" />
        </mxCell>
        <mxCell id="S0sxFMEwnrM8VdA2E1EQ-35" value="" style="edgeStyle=orthogonalEdgeStyle;rounded=0;orthogonalLoop=1;jettySize=auto;html=1;fontSize=14;" edge="1" parent="1" source="S0sxFMEwnrM8VdA2E1EQ-5" target="S0sxFMEwnrM8VdA2E1EQ-17">
          <mxGeometry relative="1" as="geometry" />
        </mxCell>
        <mxCell id="S0sxFMEwnrM8VdA2E1EQ-5" value="" style="rounded=1;whiteSpace=wrap;html=1;" vertex="1" parent="1">
          <mxGeometry x="620" y="180" width="120" height="60" as="geometry" />
        </mxCell>
        <mxCell id="S0sxFMEwnrM8VdA2E1EQ-36" value="" style="edgeStyle=orthogonalEdgeStyle;rounded=0;orthogonalLoop=1;jettySize=auto;html=1;fontSize=14;" edge="1" parent="1" source="S0sxFMEwnrM8VdA2E1EQ-6" target="S0sxFMEwnrM8VdA2E1EQ-16">
          <mxGeometry relative="1" as="geometry" />
        </mxCell>
        <mxCell id="S0sxFMEwnrM8VdA2E1EQ-6" value="" style="rounded=1;whiteSpace=wrap;html=1;" vertex="1" parent="1">
          <mxGeometry x="760" y="180" width="120" height="60" as="geometry" />
        </mxCell>
        <mxCell id="S0sxFMEwnrM8VdA2E1EQ-37" value="" style="edgeStyle=orthogonalEdgeStyle;rounded=0;orthogonalLoop=1;jettySize=auto;html=1;fontSize=14;" edge="1" parent="1" source="S0sxFMEwnrM8VdA2E1EQ-7" target="S0sxFMEwnrM8VdA2E1EQ-23">
          <mxGeometry relative="1" as="geometry" />
        </mxCell>
        <mxCell id="S0sxFMEwnrM8VdA2E1EQ-7" value="" style="rounded=1;whiteSpace=wrap;html=1;" vertex="1" parent="1">
          <mxGeometry x="900" y="180" width="120" height="60" as="geometry" />
        </mxCell>
        <mxCell id="S0sxFMEwnrM8VdA2E1EQ-8" value="&lt;b&gt;&lt;font style=&quot;font-size: 14px&quot;&gt;Понедельник&lt;/font&gt;&lt;/b&gt;" style="text;html=1;strokeColor=none;fillColor=default;align=center;verticalAlign=middle;whiteSpace=wrap;rounded=0;strokeWidth=22;" vertex="1" parent="1">
          <mxGeometry x="67.5" y="195" width="105" height="30" as="geometry" />
        </mxCell>
        <mxCell id="S0sxFMEwnrM8VdA2E1EQ-9" value="&lt;b&gt;&lt;font style=&quot;font-size: 14px&quot;&gt;Вторник&lt;/font&gt;&lt;/b&gt;" style="text;html=1;strokeColor=none;fillColor=default;align=center;verticalAlign=middle;whiteSpace=wrap;rounded=0;strokeWidth=22;" vertex="1" parent="1">
          <mxGeometry x="207.5" y="195" width="105" height="30" as="geometry" />
        </mxCell>
        <mxCell id="S0sxFMEwnrM8VdA2E1EQ-10" value="&lt;b&gt;&lt;font style=&quot;font-size: 14px&quot;&gt;Среда&lt;/font&gt;&lt;/b&gt;" style="text;html=1;strokeColor=none;fillColor=default;align=center;verticalAlign=middle;whiteSpace=wrap;rounded=0;strokeWidth=22;" vertex="1" parent="1">
          <mxGeometry x="347.5" y="195" width="105" height="30" as="geometry" />
        </mxCell>
        <mxCell id="S0sxFMEwnrM8VdA2E1EQ-11" value="&lt;b&gt;&lt;font style=&quot;font-size: 14px&quot;&gt;Четверг&lt;/font&gt;&lt;/b&gt;" style="text;html=1;strokeColor=none;fillColor=default;align=center;verticalAlign=middle;whiteSpace=wrap;rounded=0;strokeWidth=22;" vertex="1" parent="1">
          <mxGeometry x="487.5" y="195" width="105" height="30" as="geometry" />
        </mxCell>
        <mxCell id="S0sxFMEwnrM8VdA2E1EQ-12" value="&lt;b&gt;&lt;font style=&quot;font-size: 14px&quot;&gt;Пятница&lt;/font&gt;&lt;/b&gt;" style="text;html=1;strokeColor=none;fillColor=default;align=center;verticalAlign=middle;whiteSpace=wrap;rounded=0;strokeWidth=22;" vertex="1" parent="1">
          <mxGeometry x="627.5" y="195" width="105" height="30" as="geometry" />
        </mxCell>
        <mxCell id="S0sxFMEwnrM8VdA2E1EQ-13" value="&lt;b&gt;&lt;font style=&quot;font-size: 14px&quot;&gt;Суббота&lt;/font&gt;&lt;/b&gt;" style="text;html=1;strokeColor=none;fillColor=default;align=center;verticalAlign=middle;whiteSpace=wrap;rounded=0;strokeWidth=22;" vertex="1" parent="1">
          <mxGeometry x="767.5" y="195" width="105" height="30" as="geometry" />
        </mxCell>
        <mxCell id="S0sxFMEwnrM8VdA2E1EQ-14" value="&lt;b&gt;&lt;font style=&quot;font-size: 14px&quot;&gt;Воскресенье&lt;/font&gt;&lt;/b&gt;" style="text;html=1;strokeColor=none;fillColor=default;align=center;verticalAlign=middle;whiteSpace=wrap;rounded=0;strokeWidth=22;" vertex="1" parent="1">
          <mxGeometry x="907.5" y="195" width="105" height="30" as="geometry" />
        </mxCell>
        <mxCell id="S0sxFMEwnrM8VdA2E1EQ-15" value="C#" style="ellipse;whiteSpace=wrap;html=1;fontSize=14;strokeColor=default;strokeWidth=1;fillColor=default;" vertex="1" parent="1">
          <mxGeometry x="900" y="380" width="120" height="80" as="geometry" />
        </mxCell>
        <mxCell id="S0sxFMEwnrM8VdA2E1EQ-16" value="PlayStation 5" style="ellipse;whiteSpace=wrap;html=1;fontSize=14;strokeColor=default;strokeWidth=1;fillColor=default;" vertex="1" parent="1">
          <mxGeometry x="760" y="280" width="120" height="80" as="geometry" />
        </mxCell>
        <mxCell id="S0sxFMEwnrM8VdA2E1EQ-17" value="Nintendo Switch" style="ellipse;whiteSpace=wrap;html=1;fontSize=14;strokeColor=default;strokeWidth=1;fillColor=default;" vertex="1" parent="1">
          <mxGeometry x="620" y="280" width="120" height="80" as="geometry" />
        </mxCell>
        <mxCell id="S0sxFMEwnrM8VdA2E1EQ-18" value="Nintendo 3DS" style="ellipse;whiteSpace=wrap;html=1;fontSize=14;strokeColor=default;strokeWidth=1;fillColor=default;" vertex="1" parent="1">
          <mxGeometry x="340" y="280" width="120" height="80" as="geometry" />
        </mxCell>
        <mxCell id="S0sxFMEwnrM8VdA2E1EQ-19" value="Книги" style="ellipse;whiteSpace=wrap;html=1;fontSize=14;strokeColor=default;strokeWidth=1;fillColor=default;dashed=1;" vertex="1" parent="1">
          <mxGeometry x="620" y="390" width="120" height="80" as="geometry" />
        </mxCell>
        <mxCell id="S0sxFMEwnrM8VdA2E1EQ-20" value="Фильмы" style="ellipse;whiteSpace=wrap;html=1;fontSize=14;strokeColor=default;strokeWidth=1;fillColor=default;dashed=1;" vertex="1" parent="1">
          <mxGeometry x="200" y="390" width="120" height="80" as="geometry" />
        </mxCell>
        <mxCell id="S0sxFMEwnrM8VdA2E1EQ-21" value="C#" style="ellipse;whiteSpace=wrap;html=1;fontSize=14;strokeColor=default;strokeWidth=1;fillColor=default;" vertex="1" parent="1">
          <mxGeometry x="200" y="280" width="120" height="80" as="geometry" />
        </mxCell>
        <mxCell id="S0sxFMEwnrM8VdA2E1EQ-22" value="C#" style="ellipse;whiteSpace=wrap;html=1;fontSize=14;strokeColor=default;strokeWidth=1;fillColor=default;" vertex="1" parent="1">
          <mxGeometry x="480" y="280" width="120" height="80" as="geometry" />
        </mxCell>
        <mxCell id="S0sxFMEwnrM8VdA2E1EQ-23" value="PlayStation 5" style="ellipse;whiteSpace=wrap;html=1;fontSize=14;strokeColor=default;strokeWidth=1;fillColor=default;" vertex="1" parent="1">
          <mxGeometry x="900" y="280" width="120" height="80" as="geometry" />
        </mxCell>
        <mxCell id="S0sxFMEwnrM8VdA2E1EQ-24" value="4 ч." style="ellipse;whiteSpace=wrap;html=1;aspect=fixed;fontSize=14;strokeColor=default;strokeWidth=1;fillColor=default;" vertex="1" parent="1">
          <mxGeometry x="980" y="430" width="40" height="40" as="geometry" />
        </mxCell>
        <mxCell id="S0sxFMEwnrM8VdA2E1EQ-26" value="2 ч." style="ellipse;whiteSpace=wrap;html=1;aspect=fixed;fontSize=14;strokeColor=default;strokeWidth=1;fillColor=default;" vertex="1" parent="1">
          <mxGeometry x="552.5" y="330" width="40" height="40" as="geometry" />
        </mxCell>
        <mxCell id="S0sxFMEwnrM8VdA2E1EQ-27" value="2 ч." style="ellipse;whiteSpace=wrap;html=1;aspect=fixed;fontSize=14;strokeColor=default;strokeWidth=1;fillColor=default;" vertex="1" parent="1">
          <mxGeometry x="272.5" y="330" width="40" height="40" as="geometry" />
        </mxCell>
        <mxCell id="S0sxFMEwnrM8VdA2E1EQ-28" value="PlayStation 5" style="ellipse;whiteSpace=wrap;html=1;fontSize=14;strokeColor=default;strokeWidth=1;fillColor=default;" vertex="1" parent="1">
          <mxGeometry x="60" y="280" width="120" height="80" as="geometry" />
        </mxCell>
        <mxCell id="S0sxFMEwnrM8VdA2E1EQ-29" value="2 ч." style="ellipse;whiteSpace=wrap;html=1;aspect=fixed;fontSize=14;strokeColor=default;strokeWidth=1;fillColor=default;" vertex="1" parent="1">
          <mxGeometry x="132.5" y="330" width="40" height="40" as="geometry" />
        </mxCell>
        <mxCell id="S0sxFMEwnrM8VdA2E1EQ-47" value="" style="edgeStyle=orthogonalEdgeStyle;rounded=0;orthogonalLoop=1;jettySize=auto;html=1;fontSize=14;exitX=0.5;exitY=1;exitDx=0;exitDy=0;entryX=0.5;entryY=0;entryDx=0;entryDy=0;" edge="1" parent="1" source="S0sxFMEwnrM8VdA2E1EQ-4" target="S0sxFMEwnrM8VdA2E1EQ-22">
          <mxGeometry relative="1" as="geometry">
            <mxPoint x="690" y="250" as="sourcePoint" />
            <mxPoint x="690" y="290" as="targetPoint" />
            <Array as="points">
              <mxPoint x="540" y="260" />
              <mxPoint x="540" y="260" />
            </Array>
          </mxGeometry>
        </mxCell>
        <mxCell id="S0sxFMEwnrM8VdA2E1EQ-48" value="" style="edgeStyle=orthogonalEdgeStyle;rounded=0;orthogonalLoop=1;jettySize=auto;html=1;fontSize=14;exitX=0.5;exitY=1;exitDx=0;exitDy=0;entryX=0.5;entryY=0;entryDx=0;entryDy=0;" edge="1" parent="1" source="S0sxFMEwnrM8VdA2E1EQ-1" target="S0sxFMEwnrM8VdA2E1EQ-28">
          <mxGeometry relative="1" as="geometry">
            <mxPoint x="550" y="250" as="sourcePoint" />
            <mxPoint x="550" y="290" as="targetPoint" />
            <Array as="points">
              <mxPoint x="120" y="260" />
              <mxPoint x="120" y="260" />
            </Array>
          </mxGeometry>
        </mxCell>
        <mxCell id="S0sxFMEwnrM8VdA2E1EQ-49" value="" style="endArrow=classic;html=1;rounded=0;fontSize=14;exitX=0.5;exitY=1;exitDx=0;exitDy=0;entryX=0.5;entryY=0;entryDx=0;entryDy=0;" edge="1" parent="1" source="S0sxFMEwnrM8VdA2E1EQ-2" target="S0sxFMEwnrM8VdA2E1EQ-21">
          <mxGeometry width="50" height="50" relative="1" as="geometry">
            <mxPoint x="490" y="410" as="sourcePoint" />
            <mxPoint x="540" y="360" as="targetPoint" />
          </mxGeometry>
        </mxCell>
        <mxCell id="S0sxFMEwnrM8VdA2E1EQ-54" value="" style="endArrow=classic;html=1;rounded=0;fontSize=14;entryX=0.5;entryY=0;entryDx=0;entryDy=0;exitX=0.5;exitY=1;exitDx=0;exitDy=0;" edge="1" parent="1" source="S0sxFMEwnrM8VdA2E1EQ-22" target="S0sxFMEwnrM8VdA2E1EQ-58">
          <mxGeometry width="50" height="50" relative="1" as="geometry">
            <mxPoint x="490" y="410" as="sourcePoint" />
            <mxPoint x="540" y="360" as="targetPoint" />
          </mxGeometry>
        </mxCell>
        <mxCell id="S0sxFMEwnrM8VdA2E1EQ-55" value="" style="endArrow=classic;html=1;rounded=0;fontSize=14;exitX=0.5;exitY=1;exitDx=0;exitDy=0;entryX=0.5;entryY=0;entryDx=0;entryDy=0;" edge="1" parent="1" source="S0sxFMEwnrM8VdA2E1EQ-21" target="S0sxFMEwnrM8VdA2E1EQ-20">
          <mxGeometry width="50" height="50" relative="1" as="geometry">
            <mxPoint x="490" y="410" as="sourcePoint" />
            <mxPoint x="540" y="360" as="targetPoint" />
          </mxGeometry>
        </mxCell>
        <mxCell id="S0sxFMEwnrM8VdA2E1EQ-56" value="" style="endArrow=classic;html=1;rounded=0;fontSize=14;exitX=0.5;exitY=1;exitDx=0;exitDy=0;entryX=0.5;entryY=0;entryDx=0;entryDy=0;" edge="1" parent="1" source="S0sxFMEwnrM8VdA2E1EQ-23" target="S0sxFMEwnrM8VdA2E1EQ-15">
          <mxGeometry width="50" height="50" relative="1" as="geometry">
            <mxPoint x="950" y="410" as="sourcePoint" />
            <mxPoint x="1000" y="360" as="targetPoint" />
          </mxGeometry>
        </mxCell>
        <mxCell id="S0sxFMEwnrM8VdA2E1EQ-57" value="" style="endArrow=classic;html=1;rounded=0;fontSize=14;exitX=0.5;exitY=1;exitDx=0;exitDy=0;entryX=0.5;entryY=0;entryDx=0;entryDy=0;" edge="1" parent="1" source="S0sxFMEwnrM8VdA2E1EQ-17" target="S0sxFMEwnrM8VdA2E1EQ-19">
          <mxGeometry width="50" height="50" relative="1" as="geometry">
            <mxPoint x="580" y="410" as="sourcePoint" />
            <mxPoint x="480" y="470" as="targetPoint" />
          </mxGeometry>
        </mxCell>
        <mxCell id="S0sxFMEwnrM8VdA2E1EQ-58" value="Фильмы" style="ellipse;whiteSpace=wrap;html=1;fontSize=14;strokeColor=default;strokeWidth=1;fillColor=default;dashed=1;" vertex="1" parent="1">
          <mxGeometry x="480" y="390" width="120" height="80" as="geometry" />
        </mxCell>
        <mxCell id="S0sxFMEwnrM8VdA2E1EQ-59" value="Книги" style="ellipse;whiteSpace=wrap;html=1;fontSize=14;strokeColor=default;strokeWidth=1;fillColor=default;dashed=1;" vertex="1" parent="1">
          <mxGeometry x="340" y="390" width="120" height="80" as="geometry" />
        </mxCell>
        <mxCell id="S0sxFMEwnrM8VdA2E1EQ-60" value="" style="endArrow=classic;html=1;rounded=0;fontSize=14;exitX=0.5;exitY=1;exitDx=0;exitDy=0;entryX=0.5;entryY=0;entryDx=0;entryDy=0;" edge="1" parent="1" source="S0sxFMEwnrM8VdA2E1EQ-18" target="S0sxFMEwnrM8VdA2E1EQ-59">
          <mxGeometry width="50" height="50" relative="1" as="geometry">
            <mxPoint x="690" y="370" as="sourcePoint" />
            <mxPoint x="690" y="400" as="targetPoint" />
          </mxGeometry>
        </mxCell>
      </root>
    </mxGraphModel>
  </diagram>
</mxfile>
